<svg id="visual" viewBox="0 0 900 600" width="900" height="600" xmlns="http://www.w3.org/2000/svg" xmlns:xlink="http://www.w3.org/1999/xlink" version="1.1"><rect width="900" height="600" fill="#931F1F"></rect><g><g transform="translate(46 213)"><path d="M103.4 -33.4C114.4 0.3 90.2 45.5 56.1 68.2C22 90.8 -22 90.8 -51.6 69.6C-81.3 48.4 -96.5 6 -85.6 -27.6C-74.6 -61.2 -37.3 -86 4.5 -87.5C46.2 -88.9 92.4 -67 103.4 -33.4Z" stroke="#F7760E" fill="none" stroke-width="20"></path></g><g transform="translate(666 167)"><path d="M77 -28.6C85.6 1.3 68.4 35.9 41 55.7C13.6 75.4 -24.1 80.2 -48.2 63.4C-72.4 46.5 -83 8 -72.7 -24.3C-62.5 -56.6 -31.2 -82.8 1.5 -83.3C34.2 -83.8 68.5 -58.6 77 -28.6Z" stroke="#F7760E" fill="none" stroke-width="20"></path></g><g transform="translate(250 587)"><path d="M55.7 -17.5C63.9 7.2 56.6 37.5 37.2 51.7C17.8 65.9 -13.7 64.1 -32.7 49.3C-51.6 34.5 -58.1 6.8 -50.5 -17C-43 -40.8 -21.5 -60.7 1.1 -61.1C23.7 -61.4 47.5 -42.3 55.7 -17.5Z" stroke="#F7760E" fill="none" stroke-width="20"></path></g><g transform="translate(852 581)"><path d="M80.8 -28.1C91.9 7.9 79.2 49.7 51.5 69.4C23.9 89.1 -18.7 86.7 -51 64.5C-83.3 42.4 -105.3 0.5 -95.1 -34.2C-84.9 -68.9 -42.4 -96.4 -3.8 -95.2C34.9 -94 69.7 -64 80.8 -28.1Z" stroke="#F7760E" fill="none" stroke-width="20"></path></g><g transform="translate(522 424)"><path d="M83.1 -23.2C95.6 11.5 85.3 57.4 57.1 77.8C28.8 98.1 -17.4 92.9 -48.4 69.7C-79.3 46.5 -94.9 5.3 -84.3 -26.8C-73.7 -58.9 -36.8 -81.9 -0.8 -81.6C35.3 -81.4 70.6 -57.9 83.1 -23.2Z" stroke="#F7760E" fill="none" stroke-width="20"></path></g><g transform="translate(367 51)"><path d="M47.3 -16.2C54.2 5.8 47.8 31.4 30.1 45C12.5 58.6 -16.3 60.3 -35.4 46.9C-54.5 33.4 -64 4.8 -56.5 -18.1C-49 -40.9 -24.5 -58 -2.1 -57.3C20.2 -56.6 40.4 -38.2 47.3 -16.2Z" stroke="#F7760E" fill="none" stroke-width="20"></path></g></g></svg>