<svg id="visual" viewBox="0 0 900 600" width="900" height="600" xmlns="http://www.w3.org/2000/svg" xmlns:xlink="http://www.w3.org/1999/xlink" version="1.1">
  <path id="wave" d="M0 444L21.5 434.5C43 425 86 406 128.8 413.5C171.7 421 214.3 455 257.2 458.8C300 462.7 343 436.3 385.8 441.2C428.7 446 471.3 482 514.2 481C557 480 600 442 642.8 433.2C685.7 424.3 728.3 444.7 771.2 453.7C814 462.7 857 460.3 878.5 459.2L900 458L900 601L878.5 601C857 601 814 601 771.2 601C728.3 601 685.7 601 642.8 601C600 601 557 601 514.2 601C471.3 601 428.7 601 385.8 601C343 601 300 601 257.2 601C214.3 601 171.7 601 128.8 601C86 601 43 601 21.5 601L0 601Z" fill="#bee0fe" stroke-linecap="round" stroke-linejoin="miter">
  </path>
</svg>
