<svg id="visual" viewBox="0 0 900 600" width="900" height="600" xmlns="http://www.w3.org/2000/svg" xmlns:xlink="http://www.w3.org/1999/xlink" version="1.1"><path d="M0 524L15 522.7C30 521.3 60 518.7 90 516.2C120 513.7 150 511.3 180 499.2C210 487 240 465 270 457C300 449 330 455 360 468.3C390 481.7 420 502.3 450 512C480 521.7 510 520.3 540 515.7C570 511 600 503 630 492.5C660 482 690 469 720 467C750 465 780 474 810 479.3C840 484.7 870 486.3 885 487.2L900 488L900 601L885 601C870 601 840 601 810 601C780 601 750 601 720 601C690 601 660 601 630 601C600 601 570 601 540 601C510 601 480 601 450 601C420 601 390 601 360 601C330 601 300 601 270 601C240 601 210 601 180 601C150 601 120 601 90 601C60 601 30 601 15 601L0 601Z" fill="#bb6b25" stroke-linecap="round" stroke-linejoin="miter"></path></svg>